# Blender v2.79 (sub 0) OBJ File: ''
# www.blender.org
o Cube.005_Cube.006
v -0.477028 -0.022165 -0.060849
v -0.387423 0.820484 0.108742
v -0.453369 -0.041306 -0.432500
v -0.357611 0.801344 -0.281404
v -0.040416 -0.041306 -0.031872
v 0.049189 0.801344 0.137720
v -0.040416 -0.041306 -0.441748
v 0.052265 0.801344 -0.281404
v 0.075817 -0.075168 0.274351
v 0.010376 0.794004 0.065295
v 0.075889 -0.065723 -0.144653
v -0.019436 0.813144 -0.364311
v 0.485682 -0.075242 0.271344
v 0.420252 0.794004 0.065295
v 0.482678 -0.065797 -0.138412
v 0.420252 0.794004 -0.344582
v 0.442102 1.076351 0.206642
v 0.403396 1.926383 0.026564
v 0.468910 1.066656 -0.183385
v 0.400320 1.926383 -0.374065
v 0.878703 1.057137 0.232613
v 0.810196 1.926383 0.035811
v 0.878776 1.066582 -0.186391
v 0.813273 1.926383 -0.383313
v -0.792635 1.078980 -0.049436
v -0.699953 1.921630 0.110907
v -0.792635 1.078980 -0.459313
v -0.696877 1.921630 -0.308217
v -0.382758 1.078980 -0.049436
v -0.287000 1.921630 0.101660
v -0.382758 1.078980 -0.459313
v -0.290077 1.921630 -0.298969
v -0.789558 1.078980 -0.468560
v -0.789558 1.078980 -0.058684
v -0.379682 1.078980 -0.468560
v -0.379682 1.078980 -0.058684
v -0.328475 0.837362 0.195172
v -0.292634 1.923774 0.219562
v -0.304816 0.818222 -0.464281
v -0.292634 1.923774 -0.478117
v 0.392863 0.818222 0.233397
v 0.405045 1.923774 0.219562
v 0.392863 0.818222 -0.464281
v 0.405045 1.923774 -0.478117
v -0.295710 1.966993 0.228809
v -0.295710 2.664672 0.228809
v -0.295710 1.966993 -0.468869
v -0.295710 2.664672 -0.468869
v 0.401968 1.966993 0.228809
v 0.401968 2.664672 0.228809
v 0.401968 1.966993 -0.468869
v 0.401968 2.664672 -0.468869
v -0.453369 -0.041306 -0.432500
v -0.453369 -0.041306 -0.432500
v -0.477028 -0.022165 -0.060849
v -0.477028 -0.022165 -0.060849
v -0.387423 0.820484 0.108742
v -0.387423 0.820484 0.108742
v -0.357611 0.801344 -0.281404
v -0.357611 0.801344 -0.281404
v -0.040416 -0.041306 -0.441748
v -0.040416 -0.041306 -0.441748
v 0.052265 0.801344 -0.281404
v 0.052265 0.801344 -0.281404
v -0.040416 -0.041306 -0.031872
v -0.040416 -0.041306 -0.031872
v 0.049189 0.801344 0.137720
v 0.049189 0.801344 0.137720
v 0.075889 -0.065723 -0.144653
v 0.075889 -0.065723 -0.144653
v 0.075817 -0.075168 0.274351
v 0.075817 -0.075168 0.274351
v 0.010376 0.794004 0.065295
v 0.010376 0.794004 0.065295
v -0.019436 0.813144 -0.364311
v -0.019436 0.813144 -0.364311
v 0.482678 -0.065797 -0.138412
v 0.482678 -0.065797 -0.138412
v 0.420252 0.794004 -0.344582
v 0.420252 0.794004 -0.344582
v 0.485682 -0.075242 0.271344
v 0.485682 -0.075242 0.271344
v 0.420252 0.794004 0.065295
v 0.420252 0.794004 0.065295
v 0.468910 1.066656 -0.183385
v 0.468910 1.066656 -0.183385
v 0.442102 1.076351 0.206642
v 0.442102 1.076351 0.206642
v 0.403396 1.926383 0.026564
v 0.403396 1.926383 0.026564
v 0.400320 1.926383 -0.374065
v 0.400320 1.926383 -0.374065
v 0.878776 1.066582 -0.186391
v 0.878776 1.066582 -0.186391
v 0.813273 1.926383 -0.383313
v 0.813273 1.926383 -0.383313
v 0.878703 1.057137 0.232613
v 0.878703 1.057137 0.232613
v 0.810196 1.926383 0.035811
v 0.810196 1.926383 0.035811
v -0.789558 1.078980 -0.468560
v -0.789558 1.078980 -0.058684
v -0.699953 1.921630 0.110907
v -0.699953 1.921630 0.110907
v -0.696877 1.921630 -0.308217
v -0.696877 1.921630 -0.308217
v -0.379682 1.078980 -0.468560
v -0.290077 1.921630 -0.298969
v -0.290077 1.921630 -0.298969
v -0.379682 1.078980 -0.058684
v -0.287000 1.921630 0.101660
v -0.287000 1.921630 0.101660
v -0.304816 0.818222 -0.464281
v -0.304816 0.818222 -0.464281
v -0.328475 0.837362 0.195172
v -0.328475 0.837362 0.195172
v -0.292634 1.923774 0.219562
v -0.292634 1.923774 0.219562
v -0.292634 1.923774 -0.478117
v -0.292634 1.923774 -0.478117
v 0.392863 0.818222 -0.464281
v 0.392863 0.818222 -0.464281
v 0.405045 1.923774 -0.478117
v 0.405045 1.923774 -0.478117
v 0.392863 0.818222 0.233397
v 0.392863 0.818222 0.233397
v 0.405045 1.923774 0.219562
v 0.405045 1.923774 0.219562
v -0.295710 1.966993 -0.468869
v -0.295710 1.966993 -0.468869
v -0.295710 1.966993 0.228809
v -0.295710 1.966993 0.228809
v -0.295710 2.664672 0.228809
v -0.295710 2.664672 0.228809
v -0.295710 2.664672 -0.468869
v -0.295710 2.664672 -0.468869
v 0.401968 1.966993 -0.468869
v 0.401968 1.966993 -0.468869
v 0.401968 2.664672 -0.468869
v 0.401968 2.664672 -0.468869
v 0.401968 1.966993 0.228809
v 0.401968 1.966993 0.228809
v 0.401968 2.664672 0.228809
v 0.401968 2.664672 0.228809
vt 0.884004 0.190795
vt 0.699535 0.099820
vt 0.905306 0.104284
vt 0.665950 0.877983
vt 0.470332 0.975348
vt 0.460132 0.877186
vt 0.571034 0.809541
vt 0.474809 0.621603
vt 0.571034 0.603403
vt 0.676470 0.611119
vt 0.572107 0.809886
vt 0.572107 0.603403
vt 0.973107 0.772482
vt 0.877386 0.871148
vt 0.884198 0.766722
vt 0.007080 0.972332
vt 0.105009 0.872908
vt 0.105008 0.973052
vt 0.388404 0.603403
vt 0.199776 0.700230
vt 0.174240 0.603403
vt 0.391880 0.807252
vt 0.190783 0.703301
vt 0.402436 0.710622
vt 0.801224 0.222783
vt 0.705979 0.411784
vt 0.706541 0.197771
vt 0.775212 0.868963
vt 0.677543 0.661949
vt 0.775223 0.654949
vt 0.978655 0.632549
vt 0.879992 0.535355
vt 0.980130 0.535355
vt 0.105685 0.867027
vt 0.007754 0.769096
vt 0.105685 0.769096
vt 0.876313 0.868858
vt 0.784389 0.677793
vt 0.876313 0.661048
vt 0.385282 0.906753
vt 0.181425 0.808324
vt 0.392753 0.809108
vt 0.704907 0.223233
vt 0.607264 0.412322
vt 0.607808 0.198751
vt 0.774646 0.649093
vt 0.677543 0.446066
vt 0.781623 0.435635
vt 0.970818 0.662009
vt 0.877386 0.765649
vt 0.877386 0.661048
vt 0.777686 0.877186
vt 0.679039 0.974395
vt 0.677543 0.877186
vt 0.884004 0.098748
vt 0.697097 0.000536
vt 0.903223 0.002721
vt 0.793206 0.986552
vt 0.989178 0.889900
vt 0.999343 0.987302
vt 0.876737 0.642106
vt 0.782695 0.453837
vt 0.878920 0.435635
vt 0.900460 0.208302
vt 0.802297 0.404252
vt 0.803097 0.197771
vt 0.999464 0.295702
vt 0.901533 0.197771
vt 0.999464 0.197771
vt 0.978639 0.437073
vt 0.879992 0.534283
vt 0.882926 0.435635
vt 0.435886 0.425589
vt 0.174240 0.267880
vt 0.438424 0.267880
vt 0.508681 0.264720
vt 0.341997 0.002373
vt 0.508681 0.000536
vt 0.340924 0.002623
vt 0.174240 0.264721
vt 0.174242 0.000536
vt 0.173166 0.000536
vt 0.006483 0.262885
vt 0.000536 0.003172
vt 0.172884 0.265793
vt 0.000536 0.423422
vt 0.006189 0.265793
vt 0.508703 0.602330
vt 0.342008 0.435635
vt 0.508703 0.435635
vt 0.509775 0.435635
vt 0.676470 0.602330
vt 0.509775 0.602330
vt 0.174240 0.435635
vt 0.340935 0.602330
vt 0.174240 0.602330
vt 0.167231 0.600256
vt 0.000536 0.433561
vt 0.167231 0.433561
vt 0.167231 0.768023
vt 0.000536 0.601328
vt 0.167231 0.601328
vt 0.606192 0.434563
vt 0.439497 0.267868
vt 0.606192 0.267868
vt 0.676449 0.000536
vt 0.509754 0.167231
vt 0.509754 0.000536
vt 0.677521 0.190795
vt 0.676470 0.975348
vt 0.472621 0.828074
vt 0.676470 0.817602
vt 0.975317 0.871148
vt 0.000536 0.878960
vt 0.417407 0.702228
vt 0.174240 0.807252
vt 0.801224 0.434563
vt 0.677543 0.876113
vt 0.880727 0.633283
vt 0.000536 0.871836
vt 0.782695 0.888828
vt 0.174240 0.906753
vt 0.704907 0.434563
vt 0.677543 0.653876
vt 0.977347 0.759722
vt 0.774752 0.975833
vt 0.677521 0.098748
vt 0.782695 0.889900
vt 0.782695 0.659975
vt 0.900460 0.414440
vt 0.901533 0.295702
vt 0.980136 0.534283
vt 0.176260 0.434563
vt 0.341996 0.266557
vt 0.340922 0.266807
vt 0.173167 0.264721
vt 0.172948 0.432488
vt 0.342008 0.602330
vt 0.676470 0.435635
vt 0.340935 0.435635
vt 0.000536 0.600256
vt 0.000536 0.768023
vt 0.439497 0.434563
vt 0.676449 0.167231
vn -0.9896 0.1241 -0.0725
vn -0.9893 0.1224 -0.0786
vn -0.9897 0.1249 -0.0694
vn -0.0061 0.1847 -0.9828
vn -0.0159 0.1811 -0.9833
vn -0.0220 0.1789 -0.9836
vn 0.9941 -0.1078 0.0053
vn 0.9940 -0.1087 0.0020
vn 0.9940 -0.1093 0.0000
vn -0.0733 -0.1893 0.9792
vn -0.0245 -0.9994 0.0253
vn -0.0220 -0.9995 0.0227
vn -0.0469 -0.9977 0.0484
vn 0.0240 0.9994 -0.0233
vn 0.0227 0.9995 -0.0220
vn 0.0000 1.0000 0.0000
vn -0.9950 -0.0875 0.0478
vn -0.9967 -0.0798 0.0157
vn -0.9971 -0.0755 -0.0019
vn 0.0201 -0.2341 -0.9720
vn 0.0284 -0.2372 -0.9710
vn 0.0149 -0.2321 -0.9726
vn 0.9973 0.0734 -0.0042
vn 0.9973 0.0727 -0.0014
vn 0.9973 0.0737 -0.0056
vn 0.0019 0.2331 0.9724
vn 0.0052 0.2319 0.9727
vn 0.0072 0.2311 0.9729
vn -0.0001 -0.9997 -0.0228
vn 0.0002 -0.9997 -0.0225
vn 0.0214 0.9995 0.0214
vn 0.0217 0.9995 0.0217
vn -0.9972 -0.0732 -0.0111
vn -0.9968 -0.0643 -0.0476
vn -0.9960 -0.0595 -0.0670
vn -0.0112 -0.2222 -0.9749
vn -0.0179 -0.2197 -0.9754
vn -0.0072 -0.2238 -0.9746
vn 0.9969 0.0786 0.0034
vn 0.9969 0.0780 0.0059
vn 0.9969 0.0790 0.0020
vn -0.0298 0.2093 0.9774
vn -0.0414 0.2141 0.9759
vn -0.0484 0.2169 0.9750
vn -0.0234 -0.9997 0.0002
vn -0.0221 -0.9997 -0.0010
vn -0.0452 -0.9987 0.0217
vn -0.9940 0.1087 -0.0020
vn -0.9941 0.1078 -0.0053
vn -0.9940 0.1093 0.0000
vn 0.0161 0.1928 -0.9811
vn 0.0061 0.1891 -0.9819
vn 0.0000 0.1869 -0.9824
vn 0.9942 -0.1073 -0.0056
vn 0.9943 -0.1063 -0.0020
vn 0.9944 -0.1057 0.0000
vn 0.0061 -0.1951 0.9807
vn 0.0159 -0.1914 0.9814
vn 0.0000 -0.1973 0.9803
vn 0.0000 -1.0000 0.0000
vn -0.9995 0.0185 -0.0233
vn -0.9996 0.0251 -0.0126
vn -0.9993 0.0105 -0.0361
vn 0.0000 -0.0125 -0.9999
vn 0.9999 -0.0110 0.0000
vn -0.0340 -0.0086 0.9994
vn -0.0196 0.0003 0.9998
vn -0.0534 -0.0206 0.9984
vn -0.0140 -0.9998 0.0137
vn -0.0132 -0.9998 0.0145
vn 0.0000 -0.9996 0.0290
vn -1.0000 0.0000 0.0000
vn 0.0000 0.0000 -1.0000
vn 1.0000 0.0000 0.0000
vn 0.0000 0.0000 1.0000
vn -0.9892 0.1216 -0.0815
vn 0.9942 -0.1072 0.0073
vn 0.0468 0.9979 -0.0454
vn -0.9937 -0.0916 0.0649
vn 0.0331 -0.2389 -0.9705
vn 0.9973 0.0724 0.0000
vn 0.0000 0.2338 0.9723
vn -0.0003 -0.9997 -0.0230
vn 0.0416 0.9983 0.0416
vn -0.9969 -0.0778 0.0076
vn -0.0218 -0.2181 -0.9756
vn 0.9969 0.0776 0.0073
vn -0.0222 0.2062 0.9782
vn -0.0003 -0.9997 -0.0225
vn -0.9942 0.1072 -0.0073
vn 0.0223 0.1950 -0.9805
vn 0.9941 -0.1079 -0.0076
vn 0.0220 -0.1892 0.9817
vn -0.9995 0.0330 0.0000
vn 0.0000 0.0125 0.9999
vn -0.0265 -0.9996 0.0000
s 1
f 55/1/1 59/2/2 53/3/3
f 60/4/4 61/5/5 54/6/6
f 64/7/7 65/8/8 62/9/9
f 66/10/10 58/11/10 56/12/10
f 3/13/11 5/14/12 1/15/13
f 4/16/14 6/17/15 8/18/16
f 73/19/17 69/20/18 71/21/19
f 70/22/20 79/23/21 77/24/22
f 78/25/23 83/26/24 81/27/25
f 84/28/26 72/29/27 82/30/28
f 15/31/29 9/32/29 11/33/30
f 16/34/31 10/35/32 14/36/16
f 89/37/33 85/38/34 87/39/35
f 86/40/36 95/41/37 93/42/38
f 94/43/39 99/44/40 97/45/41
f 100/46/42 88/47/43 98/48/44
f 19/49/45 21/50/46 17/51/47
f 24/52/16 18/53/16 22/54/16
f 102/55/48 105/56/49 101/57/50
f 106/58/51 107/59/52 33/60/53
f 109/61/54 110/62/55 35/63/56
f 36/64/57 104/65/58 34/66/59
f 31/67/60 25/68/60 27/69/60
f 32/70/16 26/71/16 30/72/16
f 115/73/61 119/74/62 113/75/63
f 120/76/64 121/77/64 114/78/64
f 122/79/65 127/80/65 125/81/65
f 126/82/66 118/83/67 116/84/68
f 43/85/69 37/86/70 39/87/71
f 44/88/16 38/89/16 42/90/16
f 133/91/72 129/92/72 131/93/72
f 136/94/73 137/95/73 130/96/73
f 140/97/74 141/98/74 138/99/74
f 144/100/75 132/101/75 142/102/75
f 51/103/60 45/104/60 47/105/60
f 48/106/16 50/107/16 52/108/16
f 55/1/1 57/109/76 59/2/2
f 60/4/4 63/110/53 61/5/5
f 64/7/7 67/111/77 65/8/8
f 66/10/10 68/112/10 58/11/10
f 3/13/11 7/113/60 5/14/12
f 4/16/14 2/114/78 6/17/15
f 73/19/17 75/115/79 69/20/18
f 70/22/20 76/116/80 79/23/21
f 78/25/23 80/117/81 83/26/24
f 84/28/26 74/118/82 72/29/27
f 15/31/29 13/119/83 9/32/29
f 16/34/31 12/120/84 10/35/32
f 89/37/33 91/121/85 85/38/34
f 86/40/36 92/122/86 95/41/37
f 94/43/39 96/123/87 99/44/40
f 100/46/42 90/124/88 88/47/43
f 19/49/45 23/125/89 21/50/46
f 24/52/16 20/126/16 18/53/16
f 102/55/48 103/127/90 105/56/49
f 106/58/51 108/128/91 107/59/52
f 109/61/54 111/129/92 110/62/55
f 36/64/57 112/130/93 104/65/58
f 31/67/60 29/131/60 25/68/60
f 32/70/16 28/132/16 26/71/16
f 115/73/61 117/133/94 119/74/62
f 120/76/64 123/134/64 121/77/64
f 122/79/65 124/135/65 127/80/65
f 126/82/66 128/136/95 118/83/67
f 43/85/69 41/137/96 37/86/70
f 44/88/16 40/138/16 38/89/16
f 133/91/72 135/139/72 129/92/72
f 136/94/73 139/140/73 137/95/73
f 140/97/74 143/141/74 141/98/74
f 144/100/75 134/142/75 132/101/75
f 51/103/60 49/143/60 45/104/60
f 48/106/16 46/144/16 50/107/16
